HIERARCHY
ROOT hip
{
  OFFSET 5.70873 43.8894 -1.52928
  CHANNELS 6 Xposition Yposition Zposition Zrotation Xrotation Yrotation
  JOINT abdomen
  {
    OFFSET 0 5.99393 0.287273
    CHANNELS 6 Xposition Yposition Zposition Zrotation Xrotation Yrotation
    JOINT chest
    {
      OFFSET 0 6.65865 -0.856112
      CHANNELS 6 Xposition Yposition Zposition Zrotation Xrotation Yrotation
      JOINT neck
      {
        OFFSET 0 8.65624 -1.42685
        CHANNELS 6 Xposition Yposition Zposition Zrotation Xrotation Yrotation
        JOINT head
        {
          OFFSET 0 3.80999 -0.190247
          CHANNELS 6 Xposition Yposition Zposition Zrotation Xrotation Yrotation
          End Site
          {
            OFFSET 0 0 0
          }
        }
      }
      JOINT rCollar
      {
        OFFSET -1.4963 7.5744 -1.52136
        CHANNELS 6 Xposition Yposition Zposition Zrotation Xrotation Yrotation
        JOINT rShldr
        {
          OFFSET -5.47506 -0.905672 0.485692
          CHANNELS 6 Xposition Yposition Zposition Zrotation Xrotation Yrotation
          JOINT rForeArm
          {
            OFFSET -11.3069 -0.201091 0.618544
            CHANNELS 6 Xposition Yposition Zposition Zrotation Xrotation Yrotation
            JOINT rHand
            {
              OFFSET -9.61414 -0.254739 3.48553
              CHANNELS 6 Xposition Yposition Zposition Zrotation Xrotation Yrotation
              JOINT rThumb1
              {
                OFFSET 0.176263 -0.07068 1.26622
                CHANNELS 6 Xposition Yposition Zposition Zrotation Xrotation Yrotation
                JOINT rThumb2
                {
                  OFFSET -1.04683 -0.546484 1.82182
                  CHANNELS 6 Xposition Yposition Zposition Zrotation Xrotation Yrotation
                  JOINT rThumb3
                  {
                    OFFSET -0.993472 -0.621916 0.655506
                    CHANNELS 6 Xposition Yposition Zposition Zrotation Xrotation Yrotation
                    End Site
                    {
                      OFFSET -0.996134 -0.66263 0.644615
                    }
                  }
                }
              }
              JOINT rIndex1
              {
                OFFSET -2.64253 0.566363 2.4162
                CHANNELS 6 Xposition Yposition Zposition Zrotation Xrotation Yrotation
                JOINT rIndex2
                {
                  OFFSET -1.39394 -0.635138 0.899356
                  CHANNELS 6 Xposition Yposition Zposition Zrotation Xrotation Yrotation
                  JOINT rIndex3
                  {
                    OFFSET -0.622395 -0.856016 0.402182
                    CHANNELS 6 Xposition Yposition Zposition Zrotation Xrotation Yrotation
                    End Site
                    {
                      OFFSET -0.472476 -0.801802 0.34216
                    }
                  }
                }
              }
              JOINT rMid1
              {
                OFFSET -3.20814 0.514427 1.52547
                CHANNELS 6 Xposition Yposition Zposition Zrotation Xrotation Yrotation
                JOINT rMid2
                {
                  OFFSET -1.56545 -0.497974 0.68919
                  CHANNELS 6 Xposition Yposition Zposition Zrotation Xrotation Yrotation
                  JOINT rMid3
                  {
                    OFFSET -0.679943 -1.17582 0.444246
                    CHANNELS 6 Xposition Yposition Zposition Zrotation Xrotation Yrotation
                    End Site
                    {
                      OFFSET -0.343874 -0.941341 0.267611
                    }
                  }
                }
              }
              JOINT rRing1
              {
                OFFSET -3.47877 0.200518 0.597719
                CHANNELS 6 Xposition Yposition Zposition Zrotation Xrotation Yrotation
                JOINT rRing2
                {
                  OFFSET -1.28208 -0.53155 0.44672
                  CHANNELS 6 Xposition Yposition Zposition Zrotation Xrotation Yrotation
                  JOINT rRing3
                  {
                    OFFSET -0.710288 -0.970167 0.4032
                    CHANNELS 6 Xposition Yposition Zposition Zrotation Xrotation Yrotation
                    End Site
                    {
                      OFFSET -0.403228 -0.950952 0.378354
                    }
                  }
                }
              }
              JOINT rPinky1
              {
                OFFSET -3.42483 -0.278904 -0.240415
                CHANNELS 6 Xposition Yposition Zposition Zrotation Xrotation Yrotation
                JOINT rPinky2
                {
                  OFFSET -1.05787 -0.635999 0.156459
                  CHANNELS 6 Xposition Yposition Zposition Zrotation Xrotation Yrotation
                  JOINT rPinky3
                  {
                    OFFSET -0.42815 -0.754232 0.287187
                    CHANNELS 6 Xposition Yposition Zposition Zrotation Xrotation Yrotation
                    End Site
                    {
                      OFFSET -0.235717 -0.725605 0.279416
                    }
                  }
                }
              }
            }
          }
        }
      }
      JOINT lCollar
      {
        OFFSET 1.4963 7.5744 -1.52136
        CHANNELS 6 Xposition Yposition Zposition Zrotation Xrotation Yrotation
        JOINT lShldr
        {
          OFFSET 5.47506 -0.905672 0.485692
          CHANNELS 6 Xposition Yposition Zposition Zrotation Xrotation Yrotation
          JOINT lForeArm
          {
            OFFSET 11.3069 -0.201091 0.618544
            CHANNELS 6 Xposition Yposition Zposition Zrotation Xrotation Yrotation
            JOINT lHand
            {
              OFFSET 9.61414 -0.254739 3.48553
              CHANNELS 6 Xposition Yposition Zposition Zrotation Xrotation Yrotation
              JOINT lThumb1
              {
                OFFSET -0.176263 -0.07068 1.26622
                CHANNELS 6 Xposition Yposition Zposition Zrotation Xrotation Yrotation
                JOINT lThumb2
                {
                  OFFSET 1.04683 -0.546484 1.82182
                  CHANNELS 6 Xposition Yposition Zposition Zrotation Xrotation Yrotation
                  JOINT lThumb3
                  {
                    OFFSET 0.993472 -0.621916 0.655506
                    CHANNELS 6 Xposition Yposition Zposition Zrotation Xrotation Yrotation
                    End Site
                    {
                      OFFSET 0.996134 -0.66263 0.644615
                    }
                  }
                }
              }
              JOINT lIndex1
              {
                OFFSET 2.64253 0.566363 2.4162
                CHANNELS 6 Xposition Yposition Zposition Zrotation Xrotation Yrotation
                JOINT lIndex2
                {
                  OFFSET 1.39394 -0.635138 0.899356
                  CHANNELS 6 Xposition Yposition Zposition Zrotation Xrotation Yrotation
                  JOINT lIndex3
                  {
                    OFFSET 0.622395 -0.856016 0.402182
                    CHANNELS 6 Xposition Yposition Zposition Zrotation Xrotation Yrotation
                    End Site
                    {
                      OFFSET 0.472476 -0.801802 0.34216
                    }
                  }
                }
              }
              JOINT lMid1
              {
                OFFSET 3.20814 0.514427 1.52547
                CHANNELS 6 Xposition Yposition Zposition Zrotation Xrotation Yrotation
                JOINT lMid2
                {
                  OFFSET 1.56545 -0.497974 0.68919
                  CHANNELS 6 Xposition Yposition Zposition Zrotation Xrotation Yrotation
                  JOINT lMid3
                  {
                    OFFSET 0.679943 -1.17582 0.444246
                    CHANNELS 6 Xposition Yposition Zposition Zrotation Xrotation Yrotation
                    End Site
                    {
                      OFFSET 0.343874 -0.941341 0.267611
                    }
                  }
                }
              }
              JOINT lRing1
              {
                OFFSET 3.47877 0.200518 0.597719
                CHANNELS 6 Xposition Yposition Zposition Zrotation Xrotation Yrotation
                JOINT lRing2
                {
                  OFFSET 1.28208 -0.53155 0.44672
                  CHANNELS 6 Xposition Yposition Zposition Zrotation Xrotation Yrotation
                  JOINT lRing3
                  {
                    OFFSET 0.710288 -0.970167 0.4032
                    CHANNELS 6 Xposition Yposition Zposition Zrotation Xrotation Yrotation
                    End Site
                    {
                      OFFSET 0.403228 -0.950952 0.378354
                    }
                  }
                }
              }
              JOINT lPinky1
              {
                OFFSET 3.42483 -0.278904 -0.240415
                CHANNELS 6 Xposition Yposition Zposition Zrotation Xrotation Yrotation
                JOINT lPinky2
                {
                  OFFSET 1.05787 -0.635999 0.156459
                  CHANNELS 6 Xposition Yposition Zposition Zrotation Xrotation Yrotation
                  JOINT lPinky3
                  {
                    OFFSET 0.42815 -0.754232 0.287187
                    CHANNELS 6 Xposition Yposition Zposition Zrotation Xrotation Yrotation
                    End Site
                    {
                      OFFSET 0.235717 -0.725605 0.279416
                    }
                  }
                }
              }
            }
          }
        }
      }
    }
  }
  JOINT rThigh
  {
    OFFSET -4.17848 -1.02486 0.046356
    CHANNELS 6 Xposition Yposition Zposition Zrotation Xrotation Yrotation
    JOINT rShin
    {
      OFFSET 1.27155 -17.465 -0.237699
      CHANNELS 6 Xposition Yposition Zposition Zrotation Xrotation Yrotation
      JOINT rFoot
      {
        OFFSET 0.529163 -17.3815 -1.19582
        CHANNELS 6 Xposition Yposition Zposition Zrotation Xrotation Yrotation
        JOINT rToe
        {
          OFFSET -0.711591 -4.4863 4.0596
          CHANNELS 6 Xposition Yposition Zposition Zrotation Xrotation Yrotation
          End Site
          {
            OFFSET -0.869915 -1.10655 1.99006
          }
        }
      }
    }
  }
  JOINT lThigh
  {
    OFFSET 4.17848 -1.02486 0.046356
    CHANNELS 6 Xposition Yposition Zposition Zrotation Xrotation Yrotation
    JOINT lShin
    {
      OFFSET -1.27155 -17.465 -0.237699
      CHANNELS 6 Xposition Yposition Zposition Zrotation Xrotation Yrotation
      JOINT lFoot
      {
        OFFSET -0.529163 -17.3815 -1.19582
        CHANNELS 6 Xposition Yposition Zposition Zrotation Xrotation Yrotation
        JOINT lToe
        {
          OFFSET 0.711591 -4.4863 4.0596
          CHANNELS 6 Xposition Yposition Zposition Zrotation Xrotation Yrotation
          End Site
          {
            OFFSET 0.869915 -1.10655 1.99006
          }
        }
      }
    }
  }
}
MOTION
Frames:	4
Frame Time:	0.0333333
0.190958 30.0549 -3.95543 -3.33875 6.55382 -4.32423 0 5.99393 0.287273 4.33224 5.46012 -3.83376 0 6.65865 -0.856112 9.082 10.6002 -8.12538 -4.44089e-016 8.65624 -1.42685 4.77808 -3.18629 -28.9337 0 3.80999 -0.190247 10.5407 0.141061 -26.1817 -1.4963 7.5744 -1.52136 -15.5864 -0.14158 4.07725 -5.47506 -0.905672 0.485692 42.0794 -17.0863 -8.89609 -11.3069 -0.201091 0.618544 29.0788 20.8315 90.4335 -9.61414 -0.254739 3.48553 -66.3881 44.0724 45.77 0.176263 -0.07068 1.26622 10.8261 -14.8983 -18.9302 -1.04683 -0.546484 1.82182 -2.91386 3.62397 -9.48843 -0.993472 -0.621916 0.655506 -4.78569 6.81018 -16.9207 -2.64253 0.566363 2.4162 30.3034 17.6785 -10.4075 -1.39394 -0.635138 0.899356 18.0133 4.27597 -3.33225 -0.622395 -0.856016 0.402182 24.1506 5.45228 -4.74006 -3.20814 0.514427 1.52547 13.9868 11.6108 -2.06817 -1.56545 -0.497974 0.68919 30.3544 7.65813 -6.43478 -0.679943 -1.17582 0.444246 5.85104 1.74744 -0.920833 -3.47877 0.200518 0.597719 16.8577 3.66889 -11.1533 -1.28208 -0.53155 0.44672 27.1282 7.74754 -6.82763 -0.710288 -0.970167 0.4032 4.03039 1.3647 -0.783367 -3.42483 -0.278904 -0.240415 18.6981 0.312523 -24.5771 -1.05787 -0.635999 0.156459 26.2113 8.33211 -6.36031 -0.42815 -0.754232 0.287187 7.09929 2.56976 -1.35415 1.4963 7.5744 -1.52136 9.62099 -1.86336 6.25518 5.47506 -0.905672 0.485692 -48.6033 -11.2793 50.7797 11.3069 -0.201091 0.618544 -32.2684 17.1001 -98.0718 9.61414 -0.254739 3.48553 4.4509 38.0926 -20.4313 -0.176263 -0.07068 1.26622 -8.4529 1.02227 4.93691 1.04683 -0.546484 1.82182 3.6287 1.30791 6.55489 0.993472 -0.621916 0.655506 7.44366 3.22309 13.7004 2.64253 0.566363 2.4162 -1.70266 18.0923 9.90622 1.39394 -0.635138 0.899356 4.11113 -1.44161 -1.60063 0.622395 -0.856016 0.402182 -1.44964 0.477343 0.584644 3.20814 0.514427 1.52547 11.1491 6.6187 0.364339 1.56545 -0.497974 0.68919 -12.9343 4.2231 5.61992 0.679943 -1.17582 0.444246 -13.752 4.4421 5.99925 3.47877 0.200518 0.597719 6.76701 -1.96124 5.19583 1.28208 -0.53155 0.44672 -10.0036 3.71969 4.83001 0.710288 -0.970167 0.4032 -11.7767 4.27721 5.73459 3.42483 -0.278904 -0.240415 8.45842 -1.92814 19.406 1.05787 -0.635999 0.156459 -9.24589 3.78183 4.3781 0.42815 -0.754232 0.287187 -14.6455 5.59905 7.13283 -4.17848 -1.02486 0.046356 -102.254 -86.8756 -104.245 1.27155 -17.465 -0.237699 83.9739 76.3996 -76.671 0.529163 -17.3815 -1.19582 -7.70513 4.90025 -10.6515 -0.711591 -4.4863 4.0596 0.791815 5.68081 -0.192372 4.17848 -1.02486 0.046356 -125.543 -84.0306 -141.75 -1.27155 -17.465 -0.237699 -9.48387 87.9252 15.8857 -0.529163 -17.3815 -1.19582 -8.53921 21.7816 1.05782 0.711591 -4.4863 4.0596 0.00344094 -0.0344199 0.00177692 
0.17839 30.0534 -3.94753 -2.94218 7.0612 -4.59019 2.22045e-016 5.99393 0.287273 4.22764 5.14971 -3.88606 -5.55112e-017 6.65865 -0.856112 8.84819 9.98485 -8.19125 0 8.65624 -1.42685 5.09719 -2.68218 -28.71 0 3.80999 -0.190247 10.5848 0.745511 -26.08 -1.4963 7.5744 -1.52136 -15.5864 -0.141519 4.07723 -5.47506 -0.905672 0.485692 41.49 -16.9546 -8.62275 -11.3069 -0.201091 0.618544 29.2185 21.6149 90.0782 -9.61414 -0.254739 3.48553 -66.4994 43.8855 45.2229 0.176263 -0.07068 1.26622 10.8261 -14.8983 -18.9302 -1.04683 -0.546484 1.82182 -2.91386 3.62397 -9.48844 -0.993472 -0.621916 0.655506 -4.78569 6.81019 -16.9206 -2.64253 0.566363 2.4162 30.3033 17.6785 -10.4075 -1.39394 -0.635138 0.899356 18.0133 4.27596 -3.33226 -0.622395 -0.856016 0.402182 24.1506 5.45228 -4.74005 -3.20814 0.514427 1.52547 13.9868 11.6108 -2.06816 -1.56545 -0.497974 0.68919 30.3544 7.65812 -6.43478 -0.679943 -1.17582 0.444246 5.85104 1.74745 -0.920835 -3.47877 0.200518 0.597719 16.8577 3.6689 -11.1533 -1.28208 -0.53155 0.44672 27.1283 7.74754 -6.82764 -0.710288 -0.970167 0.4032 4.0304 1.36471 -0.783359 -3.42483 -0.278904 -0.240415 18.6981 0.312521 -24.577 -1.05787 -0.635999 0.156459 26.2113 8.33211 -6.36029 -0.42815 -0.754232 0.287187 7.09929 2.56976 -1.35416 1.4963 7.5744 -1.52136 9.60688 -1.86791 6.25211 5.47506 -0.905672 0.485692 -48.012 -11.125 51.7928 11.3069 -0.201091 0.618544 -32.306 17.3646 -97.7648 9.61414 -0.254739 3.48553 4.61367 37.7256 -21 -0.176263 -0.07068 1.26622 -8.45292 1.02225 4.93693 1.04683 -0.546484 1.82182 3.62872 1.30791 6.55489 0.993472 -0.621916 0.655506 7.44364 3.22308 13.7003 2.64253 0.566363 2.4162 -1.70266 18.0923 9.90622 1.39394 -0.635138 0.899356 4.11113 -1.44161 -1.60065 0.622395 -0.856016 0.402182 -1.44964 0.477348 0.584661 3.20814 0.514427 1.52547 11.1491 6.61869 0.364352 1.56545 -0.497974 0.68919 -12.9343 4.2231 5.61991 0.679943 -1.17582 0.444246 -13.752 4.4421 5.99926 3.47877 0.200518 0.597719 6.76699 -1.96125 5.19584 1.28208 -0.53155 0.44672 -10.0036 3.71969 4.83001 0.710288 -0.970167 0.4032 -11.7767 4.27721 5.7346 3.42483 -0.278904 -0.240415 8.45842 -1.92816 19.406 1.05787 -0.635999 0.156459 -9.2459 3.78184 4.3781 0.42815 -0.754232 0.287187 -14.6455 5.59905 7.13284 -4.17848 -1.02486 0.046356 -112.838 -86.7534 -114.803 1.27155 -17.465 -0.237699 84.2799 76.3965 -76.9038 0.529163 -17.3815 -1.19582 -7.17301 4.72278 -10.6929 -0.711591 -4.4863 4.0596 0.791811 5.68082 -0.192373 4.17848 -1.02486 0.046356 -129.757 -83.8047 -145.883 -1.27155 -17.465 -0.237699 -9.00119 87.9052 15.51 -0.529163 -17.3815 -1.19582 -8.01201 21.8267 0.948868 0.711591 -4.4863 4.0596 0.00343853 -0.0344232 0.00177294 
0.151075 30.0498 -3.93904 -2.21986 7.71056 -5.17084 0 5.99393 0.287273 4.14976 4.85555 -3.86117 0 6.65865 -0.856112 8.66352 9.40603 -8.10735 -4.44089e-016 8.65624 -1.42685 5.24176 -2.27356 -28.4899 -2.22045e-016 3.80999 -0.190247 10.5368 1.16004 -25.9289 -1.4963 7.5744 -1.52136 -15.5864 -0.141559 4.07724 -5.47506 -0.905672 0.485692 40.5835 -16.8848 -8.39251 -11.3069 -0.201091 0.618544 29.4019 22.6913 90.3114 -9.61414 -0.254739 3.48553 -66.9426 44.1361 44.6276 0.176263 -0.07068 1.26622 10.8261 -14.8983 -18.9302 -1.04683 -0.546484 1.82182 -2.91386 3.62398 -9.48846 -0.993472 -0.621916 0.655506 -4.78569 6.81019 -16.9206 -2.64253 0.566363 2.4162 30.3033 17.6785 -10.4075 -1.39394 -0.635138 0.899356 18.0133 4.27597 -3.33228 -0.622395 -0.856016 0.402182 24.1506 5.45229 -4.74006 -3.20814 0.514427 1.52547 13.9868 11.6108 -2.06816 -1.56545 -0.497974 0.68919 30.3544 7.65814 -6.43477 -0.679943 -1.17582 0.444246 5.85104 1.74744 -0.920825 -3.47877 0.200518 0.597719 16.8576 3.6689 -11.1533 -1.28208 -0.53155 0.44672 27.1283 7.74756 -6.82763 -0.710288 -0.970167 0.4032 4.03039 1.3647 -0.783355 -3.42483 -0.278904 -0.240415 18.6981 0.312527 -24.5771 -1.05787 -0.635999 0.156459 26.2113 8.33212 -6.36029 -0.42815 -0.754232 0.287187 7.0993 2.56976 -1.35415 1.4963 7.5744 -1.52136 9.56575 -1.88127 6.24333 5.47506 -0.905672 0.485692 -47.7571 -11.0371 52.7728 11.3069 -0.201091 0.618544 -32.378 17.2142 -97.0329 9.61414 -0.254739 3.48553 4.70768 37.2031 -22.2013 -0.176263 -0.07068 1.26622 -8.45293 1.02223 4.93694 1.04683 -0.546484 1.82182 3.62872 1.30791 6.55488 0.993472 -0.621916 0.655506 7.44365 3.22307 13.7003 2.64253 0.566363 2.4162 -1.70266 18.0923 9.90621 1.39394 -0.635138 0.899356 4.11112 -1.44161 -1.60066 0.622395 -0.856016 0.402182 -1.44963 0.477339 0.584664 3.20814 0.514427 1.52547 11.1491 6.61868 0.36435 1.56545 -0.497974 0.68919 -12.9343 4.22309 5.6199 0.679943 -1.17582 0.444246 -13.752 4.44209 5.99926 3.47877 0.200518 0.597719 6.76701 -1.96126 5.19585 1.28208 -0.53155 0.44672 -10.0036 3.71968 4.82999 0.710288 -0.970167 0.4032 -11.7767 4.27723 5.73459 3.42483 -0.278904 -0.240415 8.45842 -1.92817 19.406 1.05787 -0.635999 0.156459 -9.24589 3.78184 4.3781 0.42815 -0.754232 0.287187 -14.6455 5.59905 7.13283 -4.17848 -1.02486 0.046356 -130.013 -86.6743 -132.014 1.27155 -17.465 -0.237699 84.5575 76.4221 -77.2146 0.529163 -17.3815 -1.19582 -6.92773 4.65179 -10.754 -0.711591 -4.4863 4.0596 0.791814 5.68082 -0.192372 4.17848 -1.02486 0.046356 -137.068 -83.6764 -153.128 -1.27155 -17.465 -0.237699 -9.07769 87.8915 15.6044 -0.529163 -17.3815 -1.19582 -7.77913 21.8631 0.882688 0.711591 -4.4863 4.0596 0.00343676 -0.0344127 0.0017747 
0.113148 30.0443 -3.9304 -1.26255 8.4449 -5.9841 -4.44089e-016 5.99393 0.287273 4.09218 4.58198 -3.77892 5.55112e-017 6.65865 -0.856112 8.5179 8.87105 -7.91306 4.44089e-016 8.65624 -1.42685 5.25744 -1.94882 -28.2719 -2.22045e-016 3.80999 -0.190247 10.4234 1.43093 -25.741 -1.4963 7.5744 -1.52136 -15.5864 -0.141493 4.07722 -5.47506 -0.905672 0.485692 39.4639 -16.8682 -8.16535 -11.3069 -0.201091 0.618544 29.6138 23.9596 90.9642 -9.61414 -0.254739 3.48553 -67.6289 44.716 44.008 0.176263 -0.07068 1.26622 10.8261 -14.8984 -18.9302 -1.04683 -0.546484 1.82182 -2.91387 3.62398 -9.48844 -0.993472 -0.621916 0.655506 -4.7857 6.8102 -16.9206 -2.64253 0.566363 2.4162 30.3034 17.6785 -10.4076 -1.39394 -0.635138 0.899356 18.0133 4.27598 -3.33226 -0.622395 -0.856016 0.402182 24.1506 5.45231 -4.74006 -3.20814 0.514427 1.52547 13.9868 11.6108 -2.06814 -1.56545 -0.497974 0.68919 30.3544 7.65816 -6.4348 -0.679943 -1.17582 0.444246 5.85105 1.74745 -0.92083 -3.47877 0.200518 0.597719 16.8577 3.66892 -11.1533 -1.28208 -0.53155 0.44672 27.1283 7.74755 -6.82763 -0.710288 -0.970167 0.4032 4.03041 1.36471 -0.783364 -3.42483 -0.278904 -0.240415 18.6981 0.312531 -24.577 -1.05787 -0.635999 0.156459 26.2113 8.33212 -6.36029 -0.42815 -0.754232 0.287187 7.0993 2.56976 -1.35414 1.4963 7.5744 -1.52136 9.49958 -1.90273 6.22907 5.47506 -0.905672 0.485692 -47.7368 -11.0044 53.6893 11.3069 -0.201091 0.618544 -32.4661 16.7572 -95.9869 9.61414 -0.254739 3.48553 4.73342 36.5642 -23.8285 -0.176263 -0.07068 1.26622 -8.45292 1.02221 4.93691 1.04683 -0.546484 1.82182 3.62872 1.30791 6.5549 0.993472 -0.621916 0.655506 7.44366 3.22307 13.7004 2.64253 0.566363 2.4162 -1.70267 18.0923 9.90622 1.39394 -0.635138 0.899356 4.11113 -1.44162 -1.60065 0.622395 -0.856016 0.402182 -1.44964 0.477341 0.584663 3.20814 0.514427 1.52547 11.1491 6.61869 0.364337 1.56545 -0.497974 0.68919 -12.9343 4.22307 5.61991 0.679943 -1.17582 0.444246 -13.752 4.44209 5.99927 3.47877 0.200518 0.597719 6.767 -1.96126 5.19585 1.28208 -0.53155 0.44672 -10.0036 3.71969 4.83 0.710288 -0.970167 0.4032 -11.7767 4.27721 5.73459 3.42483 -0.278904 -0.240415 8.45839 -1.92819 19.406 1.05787 -0.635999 0.156459 -9.2459 3.78184 4.37811 0.42815 -0.754232 0.287187 -14.6456 5.59905 7.13286 -4.17848 -1.02486 0.046356 -150.336 -86.3649 -152.423 1.27155 -17.465 -0.237699 84.612 76.4619 -77.3731 0.529163 -17.3815 -1.19582 -6.90182 4.66099 -10.8283 -0.711591 -4.4863 4.0596 0.791809 5.68082 -0.192366 4.17848 -1.02486 0.046356 -146.469 -83.5165 -162.488 -1.27155 -17.465 -0.237699 -9.56442 87.8797 16.0398 -0.529163 -17.3815 -1.19582 -7.77005 21.8883 0.847948 0.711591 -4.4863 4.0596 0.0034316 -0.0344243 0.00178044 
